<svg viewBox="0 0 46 46" xmlns="http://www.w3.org/2000/svg">
  <defs>
    <linearGradient id="a" gradientUnits="userSpaceOnUse" x1="102.79" y1="24.57" x2="102.79" y2="60.56" gradientTransform="matrix(-1.1592 -.05695 0 -.72222 141.63 64.6)">
      <stop offset="0" stop-color="#0ea5e9"/>
      <stop offset="1" stop-color="#0369a1"/>
    </linearGradient>
  </defs>
  <path d="M44 38c0 1.66-1.57 3-3.5 3h-35C3.57 41 2 39.66 2 38V8c0-1.66 1.57-3 3.5-3h35C42.43 5 44 6.34 44 8z" stroke="url(#a)" fill="none" stroke-width="4"/>
  <path d="M2 15h27.48v26H5.5C3.56 41 2 39.66 2 38z" fill="#e0f2fe"/>
  <path d="M44 15v23c0 1.66-1.56 3-3.5 3H29.48V15z" fill="#bae6fd"/>
  <path d="M2 8c0-1.66 1.56-3 3.5-3h35C42.44 5 44 6.34 44 8v7H2z" fill="#0369a1"/>
  <path d="M8.3 9.67a2.17 2.17 0 11-4.34 0 2.17 2.17 0 014.35 0zm5.95 0a2.17 2.17 0 11-4.34 0 2.17 2.17 0 014.34 0zm5.9 0a2.17 2.17 0 11-4.34 0 2.17 2.17 0 014.34 0z" fill="#bae6fd"/>
  <path d="M25.2 35.89l-9.9-3.12-.11-.04-.1-.08-5.14-4.02-.14-.1-.07-.17-3.11-7.05 1.28-.56 3.04 6.89 4.9 3.83 9.78 3.09z" fill="#38bdf8" stroke="#38bdf8"/>
  <path d="M24.48 33.13a2 2 0 110 4 2 2 0 010-4zm-9.53-3.1a2 2 0 110 4 2 2 0 010-4zm-4.72-4a2 2 0 110 4 2 2 0 010-4zm-2.74-7.86a2 2 0 110 4 2 2 0 010-4z" fill="#0284c7"/>
  <path d="M32.8 25h8.17v4.06H32.8zm0-7h8.17v4.06H32.8z" fill="#0ea5e9"/>
</svg>
