<?xml version="1.0" encoding="utf-8"?>
<svg viewBox="0 0 46 46" xmlns="http://www.w3.org/2000/svg">
  <defs>
    <linearGradient id="gradient-0" gradientUnits="userSpaceOnUse" x1="102.789" y1="24.565" x2="102.789" y2="60.565" gradientTransform="matrix(-1.159192, -0.056945, 0, -0.722221, 170.566144, 21.531719)">
      <stop offset="0" style="stop-color: rgb(14, 165, 233);"/>
      <stop offset="1" style="stop-color: rgb(3, 105, 161);"/>
    </linearGradient>
  </defs>
  <g transform="matrix(1, 0, 0, 1, -28.933001, 43.063)">
    <path d="M 72.933 -5.063 C 72.933 -3.406 71.367 -2.063 69.433 -2.063 L 34.433 -2.063 C 32.499 -2.063 30.933 -3.406 30.933 -5.063 L 30.933 -35.063 C 30.933 -36.72 32.499 -38.063 34.433 -38.063 L 69.433 -38.063 C 71.367 -38.063 72.933 -36.72 72.933 -35.063 Z" style="stroke: url(#gradient-0); fill: none; stroke-width: 4px;"/>
    <path d="M 30.933 -28.063 L 58.414 -28.063 L 58.414 -2.063 L 34.431 -2.063 C 32.498 -2.063 30.933 -3.406 30.933 -5.063 Z" style="fill: rgb(224, 242, 254);"/>
    <path d="M 72.933 -28.063 L 72.933 -5.063 C 72.933 -3.406 71.368 -2.063 69.435 -2.063 L 58.414 -2.063 L 58.414 -28.063 Z" style="fill: rgb(186, 230, 253);"/>
    <path d="M 30.933 -35.063 C 30.933 -36.72 32.498 -38.063 34.431 -38.063 L 69.435 -38.063 C 71.368 -38.063 72.933 -36.72 72.933 -35.063 L 72.933 -28.063 L 30.933 -28.063 Z" style="fill: rgb(3, 105, 161);"/>
    <path d="M 37.24 -33.391 A 2.172 2.172 0 0 1 35.068 -31.219 A 2.172 2.172 0 0 1 32.896 -33.391 A 2.172 2.172 0 0 1 35.068 -35.563 A 2.172 2.172 0 0 1 37.24 -33.391 Z" style="fill: rgb(186, 230, 253);"/>
    <path d="M 43.182 -33.391 A 2.172 2.172 0 0 1 41.01 -31.219 A 2.172 2.172 0 0 1 38.838 -33.391 A 2.172 2.172 0 0 1 41.01 -35.563 A 2.172 2.172 0 0 1 43.182 -33.391 Z" style="fill: rgb(186, 230, 253);"/>
    <path d="M 49.082 -33.391 A 2.172 2.172 0 0 1 46.91 -31.219 A 2.172 2.172 0 0 1 44.738 -33.391 A 2.172 2.172 0 0 1 46.91 -35.563 A 2.172 2.172 0 0 1 49.082 -33.391 Z" style="fill: rgb(186, 230, 253);"/>
    <path d="M 54.14 -7.173 L 44.238 -10.297 L 44.119 -10.335 L 44.019 -10.413 L 38.881 -14.43 L 38.744 -14.537 L 38.673 -14.698 L 35.561 -21.751 L 36.839 -22.314 L 39.882 -15.423 L 44.78 -11.591 L 54.561 -8.505 Z" style="fill: rgb(56, 189, 248); stroke: rgb(56, 189, 248);"/>
    <path d="M 38.423 -22.889 C 38.423 -23.994 37.527 -24.889 36.423 -24.889 C 35.318 -24.889 34.423 -23.994 34.423 -22.889 C 34.423 -21.785 35.318 -20.889 36.423 -20.889 C 37.527 -20.889 38.423 -21.785 38.423 -22.889 Z" style="fill: rgb(2, 132, 199);" transform="matrix(-1, 0, 0, -1, 72.846001, -45.778)"/>
    <path d="M 41.163 -15.026 C 41.163 -16.13 40.267 -17.026 39.163 -17.026 C 38.058 -17.026 37.163 -16.13 37.163 -15.026 C 37.163 -13.921 38.058 -13.026 39.163 -13.026 C 40.267 -13.026 41.163 -13.921 41.163 -15.026 Z" style="fill: rgb(2, 132, 199);" transform="matrix(-1, 0, 0, -1, 78.325996, -30.051999)"/>
    <path d="M 45.882 -11.026 C 45.882 -12.13 44.986 -13.026 43.882 -13.026 C 42.777 -13.026 41.882 -12.13 41.882 -11.026 C 41.882 -9.922 42.777 -9.026 43.882 -9.026 C 44.986 -9.026 45.882 -9.922 45.882 -11.026 Z" style="fill: rgb(2, 132, 199);" transform="matrix(-1, 0, 0, -1, 87.764, -22.052)"/>
    <path d="M 55.414 -7.932 C 55.414 -9.036 54.518 -9.932 53.414 -9.932 C 52.31 -9.932 51.414 -9.036 51.414 -7.932 C 51.414 -6.828 52.31 -5.932 53.414 -5.932 C 54.518 -5.932 55.414 -6.828 55.414 -7.932 Z" style="fill: rgb(2, 132, 199);" transform="matrix(-1, 0, 0, -1, 106.828003, -15.864)"/>
    <path d="M 61.728 -25.063 H 69.901 V -21.002 H 61.728 V -25.063 Z" style="fill: rgb(14, 165, 233);"/>
    <path d="M 61.728 -18.063 H 69.901 V -14.002 H 61.728 V -18.063 Z" style="fill: rgb(14, 165, 233);"/>
  </g>
</svg>